<svg xmlns="http://www.w3.org/2000/svg" viewBox="0 0 686 686">
  <path fill="#000000" d="M 294.395 62.561 C 155.98 86.438 58.344 206.783 58.352 342.505 C 58.352 358.603 59.72 374.929 62.567 391.379 C 86.444 529.779 206.782 627.413 342.507 627.401 C 358.61 627.401 374.934 626.034 391.376 623.198 C 529.772 599.313 627.408 478.977 627.4 343.255 C 627.4 327.159 626.04 310.834 623.195 294.397 C 599.306 155.975 478.97 58.346 343.259 58.346 C 327.159 58.346 310.835 59.722 294.395 62.561 M 5.076 401.323 C 1.662 381.59 0.003 361.923 0.003 342.505 C 0.003 178.694 117.648 33.986 284.451 5.079 C 304.184 1.665 323.843 0.005 343.259 0.005 C 507.063 0.005 651.756 117.65 680.687 284.446 L 651.94 289.421 L 680.687 284.455 C 684.09 304.187 685.751 323.854 685.743 343.255 C 685.743 507.063 568.104 651.766 401.316 680.689 C 381.578 684.103 361.918 685.753 342.507 685.753 C 178.691 685.753 33.983 568.111 5.076 401.323" />
  <path fill="#000000" d="M 466.725 220.4 C 466.725 220.4 129.179 271.501 337.115 439.568 C 337.115 439.568 504.555 578.192 154.325 596.594 C 154.325 596.594 288.682 665.294 410.745 630.945 C 410.745 630.945 595.373 552.43 442.029 429.142 C 442.029 429.142 231.958 295.653 466.725 220.4" />
</svg>
